<svg width="1282" height="421" viewBox="0 0 1282 421" fill="none" xmlns="http://www.w3.org/2000/svg">
<rect width="1282" height="421" fill="#E5E5E5"/>
<g clip-path="url(#clip0)">
<path d="M531.452 95.2527C529.668 110.514 524.019 122.308 514.506 130.632C505.058 138.891 492.472 143.02 476.748 143.02C459.702 143.02 446.026 136.909 435.719 124.686C425.478 112.463 420.358 96.1115 420.358 75.6303V61.756C420.358 48.3441 422.737 36.5509 427.494 26.3764C432.317 16.2019 439.122 8.40579 447.909 2.98818C456.696 -2.49549 466.87 -5.23733 478.432 -5.23733C493.76 -5.23733 506.049 -0.942883 515.298 7.646C524.548 16.1688 529.933 27.9951 531.452 43.1247H512.325C510.674 31.6288 507.073 23.3042 501.523 18.1509C496.039 12.9975 488.343 10.4209 478.432 10.4209C466.276 10.4209 456.729 14.9135 449.792 23.8988C442.921 32.8841 439.485 45.6683 439.485 62.2515V76.225C439.485 91.8832 442.755 104.337 449.296 113.587C455.837 122.836 464.987 127.461 476.748 127.461C487.318 127.461 495.412 125.083 501.028 120.326C506.71 115.503 510.475 107.145 512.325 95.2527H531.452ZM668.511 73.5492C668.511 87.6878 666.132 100.043 661.376 110.614C656.619 121.118 649.88 129.146 641.159 134.695C632.438 140.245 622.263 143.02 610.635 143.02C599.271 143.02 589.196 140.245 580.409 134.695C571.622 129.08 564.784 121.118 559.895 110.812C555.072 100.439 552.594 88.4476 552.462 74.8375V64.4318C552.462 50.5574 554.873 38.3017 559.696 27.6647C564.519 17.0277 571.324 8.9013 580.111 3.28549C588.965 -2.39639 599.073 -5.23733 610.437 -5.23733C621.999 -5.23733 632.173 -2.42942 640.96 3.18639C649.814 8.73613 656.619 16.8295 661.376 27.4665C666.132 38.0374 668.511 50.3592 668.511 64.4318V73.5492ZM649.582 64.2336C649.582 47.1218 646.147 34.0073 639.276 24.8898C632.405 15.7063 622.792 11.1146 610.437 11.1146C598.412 11.1146 588.932 15.7063 581.994 24.8898C575.123 34.0073 571.589 46.6924 571.39 62.9452V73.5492C571.39 90.1324 574.859 103.181 581.796 112.695C588.799 122.142 598.412 126.866 610.635 126.866C622.924 126.866 632.438 122.407 639.177 113.488C645.916 104.502 649.384 91.6519 649.582 74.9366V64.2336ZM697.052 141.038V-3.25528H737.784C750.337 -3.25528 761.436 -0.480405 771.082 5.06934C780.728 10.6191 788.161 18.5142 793.38 28.7548C798.666 38.9954 801.341 50.7556 801.407 64.0353V73.2519C801.407 86.862 798.765 98.7873 793.479 109.028C788.26 119.268 780.761 127.131 770.983 132.614C761.271 138.098 749.94 140.906 736.991 141.038H697.052ZM716.08 12.4029V125.479H736.099C750.766 125.479 762.163 120.92 770.289 111.803C778.482 102.685 782.578 89.7029 782.578 72.8555V64.4318C782.578 48.0468 778.713 35.3286 770.983 26.2773C763.319 17.1598 752.418 12.5351 738.279 12.4029H716.08ZM850.661 141.038H831.634V-3.25528H850.661V141.038ZM996.441 141.038H977.314L904.672 29.845V141.038H885.546V-3.25528H904.672L977.513 108.433V-3.25528H996.441V141.038ZM1136.77 122.109C1131.88 129.113 1125.04 134.365 1116.26 137.867C1107.54 141.302 1097.36 143.02 1085.73 143.02C1073.97 143.02 1063.53 140.278 1054.42 134.795C1045.3 129.245 1038.23 121.383 1033.21 111.208C1028.25 101.034 1025.71 89.2404 1025.58 75.8286V63.2425C1025.58 41.506 1030.63 24.6586 1040.74 12.7002C1050.91 0.74186 1065.19 -5.23733 1083.55 -5.23733C1098.62 -5.23733 1110.74 -1.37233 1119.92 6.35767C1129.11 14.0216 1134.72 24.9229 1136.77 39.0615H1117.74C1114.18 19.9678 1102.81 10.4209 1083.65 10.4209C1070.9 10.4209 1061.22 14.9135 1054.61 23.8988C1048.07 32.818 1044.77 45.7674 1044.7 62.747V74.5402C1044.7 90.727 1048.4 103.61 1055.8 113.19C1063.2 122.704 1073.21 127.461 1085.83 127.461C1092.97 127.461 1099.21 126.668 1104.56 125.083C1109.91 123.497 1114.34 120.821 1117.84 117.055V84.6487H1084.44V69.1887H1136.77V122.109Z" fill="black"/>
<path d="M546.159 355.154H525.637L447.694 235.847V355.154H427.171V200.332H447.694L525.849 320.17V200.332H546.159V355.154ZM604.324 355.154H583.908V200.332H604.324V355.154ZM760.741 355.154H740.219L662.276 235.847V355.154H641.753V200.332H662.276L740.431 320.17V200.332H760.741V355.154ZM861.865 200.332H882.387V309.962C882.387 324.778 877.921 336.368 868.989 344.733C860.128 353.098 848.289 357.281 833.474 357.281C818.091 357.281 806.11 353.346 797.533 345.478C788.955 337.609 784.666 326.586 784.666 312.408H805.082C805.082 321.269 807.493 328.181 812.313 333.143C817.204 338.105 824.258 340.586 833.474 340.586C841.909 340.586 848.715 337.928 853.89 332.611C859.136 327.294 861.794 319.851 861.865 310.281V200.332ZM1000.31 314.747H935.448L920.88 355.154H899.826L958.948 200.332H976.812L1036.04 355.154H1015.09L1000.31 314.747ZM941.615 297.946H994.251L967.88 225.533L941.615 297.946ZM1102.5 286.143C1084.99 281.11 1072.23 274.943 1064.22 267.641C1056.28 260.269 1052.31 251.195 1052.31 240.42C1052.31 228.227 1057.16 218.16 1066.88 210.221C1076.66 202.21 1089.35 198.205 1104.94 198.205C1115.58 198.205 1125.04 200.261 1133.34 204.372C1141.7 208.484 1148.15 214.155 1152.69 221.386C1157.3 228.617 1159.6 236.521 1159.6 245.098H1139.08C1139.08 235.741 1136.1 228.404 1130.15 223.087C1124.19 217.7 1115.79 215.006 1104.94 215.006C1094.88 215.006 1087.01 217.239 1081.34 221.705C1075.74 226.1 1072.94 232.232 1072.94 240.101C1072.94 246.41 1075.6 251.762 1080.91 256.157C1086.3 260.481 1095.41 264.451 1108.24 268.066C1121.14 271.682 1131.21 275.687 1138.44 280.082C1145.74 284.406 1151.13 289.475 1154.6 295.288C1158.15 301.101 1159.92 307.942 1159.92 315.81C1159.92 328.358 1155.03 338.424 1145.24 346.009C1135.46 353.524 1122.38 357.281 1106.01 357.281C1095.37 357.281 1085.45 355.26 1076.23 351.22C1067.02 347.108 1059.89 341.508 1054.86 334.419C1049.9 327.33 1047.42 319.284 1047.42 310.281H1067.94C1067.94 319.638 1071.38 327.046 1078.25 332.505C1085.2 337.892 1094.45 340.586 1106.01 340.586C1116.78 340.586 1125.04 338.389 1130.78 333.994C1136.53 329.598 1139.4 323.608 1139.4 316.023C1139.4 308.438 1136.74 302.59 1131.42 298.478C1126.1 294.296 1116.46 290.184 1102.5 286.143Z" fill="black"/>
<path d="M151.401 105.706H345.086V14.66H151.711C120.72 12.9848 89.9678 20.912 63.649 37.36C41.0755 52.5096 23.9061 74.4469 14.624 99.999C4.63697 129.959 -0.810027 160.826 0.0979732 191.699C-0.810027 222.566 4.63697 254.341 14.624 283.393C23.9053 308.946 41.0748 330.885 63.649 346.035C89.9677 362.483 120.72 370.411 151.711 368.735H345.086V267.565H151.401C126.849 267.565 109.572 260.29 98.66 246.651C87.748 233.012 81.383 213.006 81.383 186.635C81.383 132.986 104.116 105.706 151.401 105.706V105.706Z" fill="url(#paint0_linear)"/>
<path fill-rule="evenodd" clip-rule="evenodd" d="M117.574 172.518L208.364 189.863C208.364 189.863 141.774 259.072 117.574 172.518Z" fill="white"/>
<path fill-rule="evenodd" clip-rule="evenodd" d="M330.474 172.827L242.458 191.09C242.458 191.09 318.686 259.569 330.474 172.827Z" fill="white"/>
</g>
<defs>
<linearGradient id="paint0_linear" x1="0" y1="191.698" x2="345.086" y2="191.698" gradientUnits="userSpaceOnUse">
<stop stop-color="#ED722F"/>
<stop offset="0.269" stop-color="#ED8225"/>
<stop offset="0.71" stop-color="#ED9718"/>
<stop offset="1" stop-color="#EE9F14"/>
</linearGradient>
<clipPath id="clip0">
<rect width="1281.56" height="420.926" fill="white"/>
</clipPath>
</defs>
</svg>
