<svg width="164" height="86" viewBox="0 0 164 86" fill="none" xmlns="http://www.w3.org/2000/svg">
<rect width="164" height="86" fill="white"/>
<rect x="19" width="129" height="57" fill="#FFB100"/>
<path d="M54 0L90.3731 57.75H17.6269L54 0Z" fill="white"/>
<rect x="91" width="57" height="57" fill="black"/>
<g filter="url(#filter0_i)">
<path d="M0.93934 26.9393C0.353553 27.5251 0.353553 28.4749 0.93934 29.0607L10.4853 38.6066C11.0711 39.1924 12.0208 39.1924 12.6066 38.6066C13.1924 38.0208 13.1924 37.0711 12.6066 36.4853L4.12132 28L12.6066 19.5147C13.1924 18.9289 13.1924 17.9792 12.6066 17.3934C12.0208 16.8076 11.0711 16.8076 10.4853 17.3934L0.93934 26.9393ZM164 26.5L2 26.5V29.5L164 29.5V26.5Z" fill="black"/>
</g>
<g filter="url(#filter1_b)">
<path d="M20.0776 64.1294L20.0648 61.4648L23.2622 61.4494L23.2751 64.114L20.0776 64.1294ZM20.4625 85.4759L20.3747 67.2315L22.9765 67.2189L23.0644 85.4634L20.4625 85.4759ZM34.3491 85.8166C32.6354 85.8249 31.2421 85.0896 30.1691 83.611C29.0962 82.1323 28.5521 79.8151 28.5369 76.6594C28.5271 74.6323 28.6968 72.9804 29.046 71.7039C29.4159 70.4064 29.9126 69.4008 30.5362 68.6873C31.1597 67.9737 31.847 67.4793 32.598 67.204C33.3699 66.9077 34.1633 66.7575 34.9784 66.7536C36.0024 66.7487 36.8596 66.8282 37.5501 66.992C38.2406 67.1559 38.7533 67.3102 39.0884 67.4548L39.0611 61.7809L41.663 61.7684L41.7766 85.3733L40.0525 85.3816L39.6986 83.5024L39.5419 83.5032C39.2712 83.7135 38.8964 84.0078 38.4176 84.3863C37.9386 84.7439 37.355 85.0707 36.6668 85.3666C35.9994 85.6624 35.2269 85.8124 34.3491 85.8166ZM34.4947 83.4961C35.0381 83.4935 35.6123 83.3967 36.2175 83.2057C36.8226 83.0147 37.3858 82.7925 37.9071 82.5392C38.4282 82.265 38.8451 82.0331 39.1577 81.8435L39.1 69.8686C38.7232 69.7242 38.1267 69.5598 37.3108 69.3757C36.5156 69.1705 35.6583 69.0701 34.7388 69.0746C33.5684 69.0802 32.7755 69.3348 32.3599 69.8384C32.1939 70.0691 32.018 70.4357 31.8323 70.9381C31.6675 71.4405 31.5247 72.1622 31.4038 73.1032C31.3038 74.0233 31.2574 75.2461 31.2648 76.7717C31.273 78.4854 31.3628 79.7807 31.5343 80.6576C31.7266 81.5345 31.9385 82.1395 32.17 82.4728C32.4015 82.8061 32.5802 83.0246 32.7061 83.1285C32.8739 83.274 33.1148 83.3774 33.4286 83.4385C33.7422 83.4788 34.0976 83.498 34.4947 83.4961ZM54.1315 85.7527C52.6895 85.7597 51.4132 85.4628 50.3027 84.862C49.2129 84.2403 48.3617 83.2308 47.7489 81.8335C47.136 80.4153 46.8239 78.5359 46.8126 76.1953C46.8008 73.7501 47.1051 71.8364 47.7254 70.4541C48.3667 69.0717 49.2293 68.0957 50.3133 67.5262C51.3972 66.9358 52.6183 66.6373 53.9768 66.6308C55.3352 66.6243 56.4859 66.8904 57.4289 67.4292C58.3929 67.968 59.1287 68.8735 59.6364 70.1459C60.144 71.3974 60.403 73.089 60.4132 75.2207L60.4227 77.1956L49.5764 77.2478C49.5198 78.5229 49.5769 79.5363 49.7477 80.2878C49.9185 81.0185 50.1197 81.5818 50.3515 81.9777C50.5832 82.3528 50.783 82.6131 50.9509 82.7586C51.5176 83.2574 52.3861 83.504 53.5564 83.4984C54.3714 83.4945 55.1548 83.4175 55.9064 83.2676C56.658 83.0968 57.3259 82.916 57.9101 82.7251C58.5152 82.5132 58.9742 82.3646 59.2873 82.2795L59.9557 84.3767C59.768 84.4612 59.4031 84.6197 58.8608 84.8522C58.3185 85.0638 57.6402 85.2656 56.8261 85.4576C56.0328 85.6495 55.1346 85.7479 54.1315 85.7527ZM50.5454 70.1584C49.881 71.0602 49.5546 72.7233 49.5663 75.1475L57.7473 74.9514C57.7415 73.7393 57.6842 72.705 57.5756 71.8487C57.4878 70.9714 57.2964 70.2931 57.0015 69.8138C56.8541 69.5846 56.6024 69.3768 56.2462 69.1905C55.8899 68.9832 55.1997 68.882 54.1757 68.8869C53.1099 68.8921 52.3058 69.0109 51.7636 69.2434C51.2422 69.4758 50.8362 69.7808 50.5454 70.1584ZM69.1247 85.6492C67.6618 85.6562 66.4682 85.1604 65.5438 84.1617C64.6403 83.1629 64.1841 81.7335 64.1752 79.8735C64.168 78.3897 64.455 77.2284 65.0362 76.3897C65.6381 75.5299 66.4816 74.9198 67.5666 74.5593C68.6516 74.1988 69.9151 74.015 71.3571 74.0081L74.68 73.9921C74.675 72.9472 74.6392 72.0382 74.5728 71.2653C74.5272 70.4713 74.3572 69.887 74.0628 69.5122C73.8524 69.2206 73.5589 69.034 73.1823 68.9522C72.8267 68.8703 72.4503 68.8303 72.0532 68.8322C71.2382 68.8361 70.434 68.9236 69.6406 69.0946C68.8681 69.2446 68.1584 69.4257 67.5115 69.6378C66.8856 69.8498 66.3849 70.0403 66.0096 70.2093C65.6341 70.3574 65.4464 70.4315 65.4464 70.4315L64.5275 68.3982C64.5275 68.3982 64.7256 68.3137 65.1219 68.1446C65.518 67.9546 66.0499 67.743 66.7176 67.5099C67.3851 67.2559 68.126 67.0434 68.9403 66.8722C69.7753 66.6801 70.6317 66.582 71.5094 66.5777C72.9305 66.5709 74.0604 66.8476 74.8991 67.4078C75.7376 67.9472 76.337 68.7176 76.6971 69.719C77.078 70.6994 77.2717 71.8584 77.2781 73.1959L77.3359 85.2021L75.6431 85.2103L75.2577 83.2999L75.0696 83.3008C74.7781 83.5112 74.3406 83.8058 73.7573 84.1848C73.1947 84.5428 72.5171 84.8805 71.7245 85.1978C70.9317 85.4942 70.0652 85.6447 69.1247 85.6492ZM69.5526 83.3587C70.3049 83.3551 71.015 83.2471 71.6827 83.0349C72.3713 82.8017 72.9761 82.548 73.4973 82.2738C74.0393 81.9995 74.4458 81.7781 74.7167 81.6096L74.6916 76.4059C74.4197 76.3654 74.012 76.3256 73.4684 76.2864C72.9248 76.2263 72.2141 76.1984 71.3363 76.2026C69.3928 76.212 68.1921 76.4163 67.7342 76.8156C67.4635 77.0259 67.2563 77.403 67.1127 77.9471C66.9689 78.4703 66.8988 79.108 66.9024 79.8604C66.9084 81.0934 67.1112 81.9911 67.511 82.5534C67.9316 83.0948 68.6121 83.3632 69.5526 83.3587ZM88.038 85.5581C87.014 85.5631 86.0416 85.4423 85.1209 85.196C84.221 84.9495 83.4884 84.7023 82.9229 84.4542C82.3574 84.2061 82.0747 84.0821 82.0747 84.0821L82.7223 81.8532C82.7223 81.8532 82.8794 81.9256 83.1936 82.0704C83.5286 82.2151 83.9684 82.3906 84.5127 82.597C85.057 82.7824 85.6743 82.9467 86.3647 83.0896C87.055 83.2326 87.7659 83.3023 88.4974 83.2988C88.9154 83.2968 89.3018 83.2636 89.6568 83.1992C90.0117 83.1139 90.2932 82.9767 90.5012 82.7876C90.7301 82.5775 90.9376 82.263 91.1237 81.8441C91.3097 81.4253 91.4014 80.9232 91.3985 80.3381C91.3943 79.4603 91.1821 78.7926 90.7619 78.3348C90.3417 77.8771 89.7967 77.5244 89.1267 77.2768C88.4567 77.0293 87.7451 76.8028 86.9917 76.5975C86.3849 76.4332 85.7884 76.248 85.2022 76.0418C84.616 75.8356 84.0817 75.5561 83.5994 75.2031C83.1379 74.85 82.7595 74.3816 82.4641 73.7979C82.1895 73.1931 82.0499 72.4205 82.0454 71.4801C82.0382 69.9963 82.4818 68.8029 83.3761 67.8999C84.2912 66.976 85.8251 66.5088 87.9776 66.4985C89.0643 66.4932 90.0784 66.5824 91.0197 66.7659C91.9611 66.9495 92.6201 67.1031 92.9969 67.2267L92.5999 69.423C92.5999 69.423 92.3489 69.3719 91.8468 69.2699C91.3656 69.1468 90.7381 69.0349 89.9643 68.9341C89.1905 68.8124 88.3647 68.7537 87.4869 68.7579C86.86 68.7609 86.3586 68.8051 85.9828 68.8906C85.6069 68.9551 85.3253 69.0609 85.1379 69.2081C84.9506 69.3553 84.795 69.5964 84.6712 69.9314C84.5473 70.2455 84.4864 70.6219 84.4885 71.0608C84.4928 71.9385 84.7363 72.5957 85.219 73.0322C85.7227 73.4687 86.3513 73.8001 87.1047 74.0263C87.8791 74.2525 88.6744 74.489 89.4907 74.7359C90.244 74.9412 90.9559 75.2199 91.6264 75.572C92.3178 75.9239 92.874 76.4333 93.2952 77.1C93.7164 77.7668 93.9298 78.6749 93.9353 79.8243C93.9435 81.5171 93.4381 82.8988 92.4192 83.9696C91.4211 85.0194 89.9607 85.5489 88.038 85.5581Z" fill="black"/>
</g>
<g filter="url(#filter2_i)">
<path d="M105.303 82.8533C104.912 82.9707 104.423 83.0587 103.836 83.1174C103.269 83.1957 102.711 83.2348 102.163 83.2348C100.715 83.2348 99.649 82.9804 98.9642 82.4717C98.2989 81.963 97.8685 81.1902 97.6729 80.1532C97.4772 79.1162 97.3794 77.5706 97.3794 75.5162C97.3794 73.4618 97.4968 71.9064 97.7315 70.8498C97.9859 69.7737 98.4457 69.0009 99.1109 68.5313C99.7761 68.0422 100.774 67.7976 102.104 67.7976C102.652 67.7976 103.22 67.8367 103.807 67.915C104.394 67.9737 104.863 68.0617 105.215 68.1791V69.8813C104.374 69.6857 103.494 69.5878 102.574 69.5878C101.635 69.5878 100.95 69.7444 100.52 70.0574C100.109 70.3509 99.8251 70.8987 99.6685 71.7009C99.5316 72.4835 99.4631 73.7455 99.4631 75.4868C99.4631 77.2673 99.5316 78.5586 99.6685 79.3608C99.8251 80.163 100.119 80.7108 100.549 81.0043C100.979 81.2978 101.664 81.4445 102.603 81.4445C103.601 81.4445 104.501 81.3369 105.303 81.1217V82.8533ZM112.746 83.2348C111.161 83.2348 110.016 83.0293 109.312 82.6185C108.627 82.2076 108.177 81.4935 107.962 80.476C107.766 79.4586 107.668 77.8054 107.668 75.5162C107.668 73.227 107.766 71.5737 107.962 70.5563C108.177 69.5389 108.627 68.8248 109.312 68.4139C110.016 68.003 111.161 67.7976 112.746 67.7976C114.331 67.7976 115.465 68.003 116.15 68.4139C116.854 68.8248 117.304 69.5389 117.5 70.5563C117.696 71.5737 117.794 73.227 117.794 75.5162C117.794 77.8054 117.696 79.4586 117.5 80.476C117.304 81.4935 116.854 82.2076 116.15 82.6185C115.465 83.0293 114.331 83.2348 112.746 83.2348ZM112.746 81.4445C113.724 81.4445 114.409 81.3076 114.8 81.0337C115.211 80.7597 115.465 80.251 115.563 79.5076C115.661 78.7641 115.71 77.4336 115.71 75.5162C115.71 73.5988 115.661 72.2683 115.563 71.5248C115.465 70.7813 115.211 70.2726 114.8 69.9987C114.409 69.7248 113.724 69.5878 112.746 69.5878C111.748 69.5878 111.053 69.7248 110.662 69.9987C110.271 70.2726 110.016 70.7911 109.899 71.5542C109.801 72.2977 109.752 73.6183 109.752 75.5162C109.752 77.414 109.801 78.7445 109.899 79.5076C110.016 80.251 110.271 80.7597 110.662 81.0337C111.053 81.3076 111.748 81.4445 112.746 81.4445ZM121.035 68.0324H122.855L122.972 70.8205H123.148C123.403 69.6661 123.843 68.8737 124.469 68.4433C125.115 68.0128 125.966 67.7976 127.022 67.7976V69.9107C126.005 69.9107 125.212 70.1259 124.645 70.5563C124.078 70.9868 123.677 71.6324 123.442 72.4933C123.227 73.3346 123.119 74.4694 123.119 75.8977V83H121.035V68.0324ZM137.005 74.2542C137.005 72.8455 136.937 71.8379 136.8 71.2313C136.682 70.6053 136.448 70.1944 136.095 69.9987C135.743 69.7835 135.166 69.6759 134.364 69.6759C133.464 69.6759 132.808 69.8911 132.398 70.3216C131.987 70.752 131.732 71.3292 131.635 72.0531C131.537 72.777 131.488 73.8336 131.488 75.2227V83H129.404V68.0324H131.224L131.341 70.1161H131.517C131.752 69.3726 132.153 68.8052 132.72 68.4139C133.307 68.003 134.139 67.7976 135.215 67.7976C136.311 67.7976 137.132 67.9933 137.68 68.3846C138.248 68.7759 138.619 69.3726 138.795 70.1748C138.991 70.9574 139.089 72.0824 139.089 73.5499V83H137.005V74.2542ZM152.006 76.1912H144.317C144.317 77.776 144.385 78.9206 144.522 79.625C144.679 80.3097 144.992 80.7891 145.461 81.063C145.95 81.3174 146.762 81.4445 147.897 81.4445C149.188 81.4445 150.421 81.3369 151.595 81.1217V82.8239C151.145 82.9413 150.529 83.0391 149.746 83.1174C148.963 83.1957 148.21 83.2348 147.486 83.2348C145.901 83.2348 144.747 83.0098 144.023 82.5598C143.299 82.0902 142.82 81.3369 142.585 80.3C142.35 79.263 142.233 77.6782 142.233 75.5455C142.233 73.4129 142.331 71.8379 142.526 70.8205C142.722 69.7835 143.172 69.0204 143.876 68.5313C144.6 68.0422 145.755 67.7976 147.34 67.7976C148.826 67.7976 149.893 68.0324 150.538 68.502C151.184 68.9715 151.585 69.7052 151.742 70.7031C151.918 71.7009 152.006 73.3053 152.006 75.5162V76.1912ZM147.31 69.5585C146.391 69.5585 145.725 69.6759 145.314 69.9107C144.904 70.1455 144.63 70.6053 144.493 71.29C144.375 71.9553 144.317 73.0705 144.317 74.6357H150.01V74.2836C150.01 72.8553 149.932 71.8183 149.775 71.1727C149.619 70.5074 149.355 70.077 148.983 69.8813C148.631 69.6661 148.073 69.5585 147.31 69.5585ZM155.256 68.0324H157.075L157.193 70.8205H157.369C157.623 69.6661 158.063 68.8737 158.689 68.4433C159.335 68.0128 160.186 67.7976 161.243 67.7976V69.9107C160.225 69.9107 159.433 70.1259 158.866 70.5563C158.298 70.9868 157.897 71.6324 157.662 72.4933C157.447 73.3346 157.339 74.4694 157.339 75.8977V83H155.256V68.0324Z" fill="#FFB100"/>
</g>
<defs>
<filter id="filter0_i" x="0.5" y="16.9541" width="163.5" height="26.0919" filterUnits="userSpaceOnUse" color-interpolation-filters="sRGB">
<feFlood flood-opacity="0" result="BackgroundImageFix"/>
<feBlend mode="normal" in="SourceGraphic" in2="BackgroundImageFix" result="shape"/>
<feColorMatrix in="SourceAlpha" type="matrix" values="0 0 0 0 0 0 0 0 0 0 0 0 0 0 0 0 0 0 127 0" result="hardAlpha"/>
<feOffset dy="4"/>
<feGaussianBlur stdDeviation="2"/>
<feComposite in2="hardAlpha" operator="arithmetic" k2="-1" k3="1"/>
<feColorMatrix type="matrix" values="0 0 0 0 0 0 0 0 0 0 0 0 0 0 0 0 0 0 0.25 0"/>
<feBlend mode="normal" in2="shape" result="effect1_innerShadow"/>
</filter>
<filter id="filter1_b" x="16.0648" y="57.4494" width="81.8707" height="32.3673" filterUnits="userSpaceOnUse" color-interpolation-filters="sRGB">
<feFlood flood-opacity="0" result="BackgroundImageFix"/>
<feGaussianBlur in="BackgroundImage" stdDeviation="2"/>
<feComposite in2="SourceAlpha" operator="in" result="effect1_backgroundBlur"/>
<feBlend mode="normal" in="SourceGraphic" in2="effect1_backgroundBlur" result="shape"/>
</filter>
<filter id="filter2_i" x="97.3794" y="67.7976" width="63.8634" height="19.4372" filterUnits="userSpaceOnUse" color-interpolation-filters="sRGB">
<feFlood flood-opacity="0" result="BackgroundImageFix"/>
<feBlend mode="normal" in="SourceGraphic" in2="BackgroundImageFix" result="shape"/>
<feColorMatrix in="SourceAlpha" type="matrix" values="0 0 0 0 0 0 0 0 0 0 0 0 0 0 0 0 0 0 127 0" result="hardAlpha"/>
<feOffset dy="4"/>
<feGaussianBlur stdDeviation="2"/>
<feComposite in2="hardAlpha" operator="arithmetic" k2="-1" k3="1"/>
<feColorMatrix type="matrix" values="0 0 0 0 0 0 0 0 0 0 0 0 0 0 0 0 0 0 0.25 0"/>
<feBlend mode="normal" in2="shape" result="effect1_innerShadow"/>
</filter>
</defs>
</svg>
